<svg width="390" height="400" xmlns="http://www.w3.org/2000/svg"><rect width="390" height="400" z-index="-1" fill="yellow"/><rect fill="red" stroke="black" x="0" y="175.99999999999997" width="25" height="224.00000000000003"/><rect fill="red" stroke="black" x="26" y="4" width="25" height="396"/><rect fill="red" stroke="black" x="52" y="344" width="25" height="56.00000000000001"/><rect fill="red" stroke="black" x="78" y="352" width="25" height="48"/><rect fill="red" stroke="black" x="104" y="216" width="25" height="184"/><rect fill="red" stroke="black" x="130" y="268" width="25" height="132"/><rect fill="red" stroke="black" x="156" y="312" width="25" height="88"/><rect fill="red" stroke="black" x="182" y="0" width="25" height="400"/><rect fill="red" stroke="black" x="208" y="52" width="25" height="348"/><rect fill="red" stroke="black" x="234" y="376" width="25" height="24"/><rect fill="red" stroke="black" x="260" y="179.99999999999997" width="25" height="220.00000000000003"/><rect fill="red" stroke="black" x="286" y="224" width="25" height="176"/><rect fill="red" stroke="black" x="312" y="292" width="25" height="108"/><rect fill="red" stroke="black" x="338" y="288" width="25" height="112.00000000000001"/><rect fill="red" stroke="black" x="364" y="264" width="25" height="136"/></svg>